PathFileType	4	(X/Y/Z)	Exemple_fichier.trc																																																																																																																															
DataRate	CameraRate	NumFrames	NumMarkers	Units	OrigDataRate	OrigDataStartFrame	OrigNumFrames																																																																																																																											
200	200	4	43	mm	200	1501	2000																																																																																																																											
Frame#	Time	LFHD			RFHD			RBHD			LBHD			C7			T10			R10			CLAV			STRN			LSHO			LUPA			LELB			LFRA			LWRA			LWRB			LFIN0			LFINx			LFINy			RSHO			RUPA			RELB			RFRA			RWRA			RWRB			RFIN0			RFINx			RFINy			LASI			RASI			RBSI			LBSI			LTHI			LKNE			LTIB			LANK			LHEE			LTOE			RTHI			RKNE			RTIB			RANK			RHEE			RTOE		
		X1	Y1	Z1	X2	Y2	Z2	X3	Y3	Z3	X4	Y4	Z4	X5	Y5	Z5	X6	Y6	Z6	X7	Y7	Z7	X8	Y8	Z8	X9	Y9	Z9	X10	Y10	Z10	X11	Y11	Z11	X12	Y12	Z12	X13	Y13	Z13	X14	Y14	Z14	X15	Y15	Z15	X16	Y16	Z16	X17	Y17	Z17	X18	Y18	Z18	X19	Y19	Z19	X20	Y20	Z20	X21	Y21	Z21	X22	Y22	Z22	X23	Y23	Z23	X24	Y24	Z24	X25	Y25	Z25	X26	Y26	Z26	X27	Y27	Z27	X28	Y28	Z28	X29	Y29	Z29	X30	Y30	Z30	X31	Y31	Z31	X32	Y32	Z32	X33	Y33	Z33	X34	Y34	Z34	X35	Y35	Z35	X36	Y36	Z36	X37	Y37	Z37	X38	Y38	Z38	X39	Y39	Z39	X40	Y40	Z40	X41	Y41	Z41	X42	Y42	Z42	X43	Y43	Z43
																																																																																																																																		
1501	7.5	361.51434	276.37503	1453.52795	465.8782	278.06049	1452.52625	478.18143	133.8831	1407.32617	367.93729	126.99117	1408.18567	419.19797	90.81915	1289.69556	424.89783	58.78395	1150.16211	584.84351	94.41242	1192.09766	431.77286	216.2509	1231.57703	436.51859	321.08078	1102.07776	278.39645	184.38982	1251.57214	229.04021	239.05014	1103.05847	208.42381	270.02911	959.36383	233.85291	349.10843	1034.09436	284.31506	424.85791	1095.64575	292.47372	449.94455	1057.68689	303.31995	483.33618	1079.67749	304.36096	499.32901	1092.80542	284.97742	469.18872	1106.37964	576.51825	160.27069	1263.24609	694.69995	237.28259	1117.49817	745.50555	248.5616	1050.93909	629.6524	347.75101	1124.30444	568.47144	359.97916	1135.08667	595.3208	399.87009	1129.01672	556.17554	434.15494	1147.79211	542.15411	445.07761	1158.30212	546.58032	410.50375	1166.52539	313.96194	267.37317	891.94159	547.37518	272.64557	889.9071	468.4201	96.59134	910.91443	396.55435	97.9304	912.39594	338.35397	298.5686	633.96838	292.61703	163.71136	447.4635	319.57397	197.7538	322.48593	308.89868	124.36761	81.01833	356.81638	88.64004	15.29602	288.89926	328.99692	50.2063	534.81171	287.87717	557.84076	605.78931	180.63351	439.86453	586.26666	198.19917	235.91718	608.0246	144.63013	76.21507	572.11969	93.36479	14.70872	612.5564	339.19794	47.80812
1502	7.505	360.96545	275.95511	1453.55725	465.46051	277.69162	1452.50342	477.37939	133.4222	1407.27197	367.47198	126.69444	1408.05847	418.55746	90.44763	1289.60034	424.05994	58.8011	1150.08252	584.36829	94.04886	1192.17664	431.35492	216.00885	1231.7113	436.19962	320.86258	1102.24487	277.81476	184.23111	1251.44348	228.73187	239.74896	1103.42224	208.4312	271.87491	959.92493	233.70311	350.73706	1034.89172	284.11945	426.34531	1096.85352	291.96866	451.54779	1059.03149	302.35059	484.83994	1080.83899	303.06982	500.9512	1093.88623	284.02859	470.43906	1107.55273	575.73218	159.6936	1263.38745	694.67792	237.49521	1119.27332	745.49042	249.60875	1052.81848	630.40125	347.93732	1128.23108	569.09009	360.33469	1139.25366	596.44611	400.22141	1134.16443	557.75323	434.45154	1153.76147	543.62842	445.10965	1164.20203	548.00714	410.3577	1172.07324	313.50052	267.31537	891.99713	547.11481	272.40936	889.98267	467.85031	96.55081	910.7619	395.85846	98.05853	912.48785	338.18686	298.55948	633.96271	292.1976	163.82108	447.48938	319.53931	197.74756	322.46384	308.85983	124.42606	81.00687	356.78003	88.55656	15.34404	288.91379	328.95712	50.23258	534.51379	287.90176	557.85822	605.59076	180.75262	440.00912	586.12201	198.2915	235.87859	607.9527	144.64297	76.29343	572.10681	93.25249	14.7559	612.52954	339.26498	47.80376
1503	7.51	360.45877	275.61636	1453.56506	464.90854	277.10312	1452.48438	476.69086	132.99129	1407.39539	366.54272	126.25105	1408.02258	417.81796	90.07729	1289.44421	423.52762	58.44107	1149.85559	583.59937	93.72794	1192.09729	430.6908	215.63455	1231.70544	435.76544	320.5798	1102.35657	276.93701	184.15045	1251.53638	228.38161	240.34941	1103.61438	208.51263	273.81201	960.37994	233.63927	352.00928	1035.84717	284.10599	427.78433	1098.12695	291.52255	453.13162	1060.31555	301.27081	486.36313	1081.8905	301.70163	502.47333	1094.81226	283.12213	471.81421	1108.54858	575.06903	159.14455	1263.66248	694.56421	237.71417	1120.9707	745.49988	250.73294	1054.80737	630.91357	348.16028	1132.09021	569.32275	360.89191	1143.03198	597.47717	400.51791	1139.30957	558.98914	434.53543	1159.71069	545.0965	445.12216	1170.41125	548.89996	410.14951	1177.15479	313.19312	267.43213	891.92151	546.68384	272.11908	890.08856	467.32547	96.43662	910.72943	395.31668	98.01672	912.29504	337.99158	298.56891	633.86285	292.01938	163.76967	447.41364	319.37714	197.80508	322.34415	308.77573	124.5611	80.8736	356.79129	88.58265	15.36352	288.91556	328.98978	50.19122	534.32715	288.00708	557.92664	605.25867	180.85164	439.87885	585.97827	198.2681	235.80573	607.85242	144.65938	76.30964	572.04547	93.31174	14.70377	612.4646	339.14774	47.80664
1504	7.515	359.93188	275.19772	1453.53076	464.46378	276.61801	1452.57129	476.06158	132.47029	1407.08728	365.75348	125.86733	1407.96753	417.12585	89.69437	1289.31982	422.68814	58.19129	1149.71411	583.15216	93.39963	1192.17932	430.14075	215.24611	1231.74316	435.18021	320.58282	1102.22107	276.46356	184.01027	1251.50684	228.0352	240.96124	1103.98499	208.42682	275.58337	961.04999	233.96935	354.08621	1036.36304	284.18726	429.15094	1099.24365	291.13113	454.79962	1061.48218	301.19186	488.15305	1082.91028	300.43686	504.0799	1095.81787	282.22556	473.26843	1109.58191	574.39075	158.61464	1263.89966	694.51605	237.87558	1122.70862	745.4635	251.82652	1056.74377	631.51447	348.47247	1136.00989	569.86652	361.431	1147.09558	598.508	400.80832	1144.47815	560.31067	434.53961	1165.60608	546.547	445.14117	1176.55981	549.88013	409.85468	1182.3772	312.83371	267.54468	891.94702	546.4505	271.88525	890.15051	466.73651	96.21568	910.63928	394.96838	97.8909	912.22687	337.858	298.61624	633.85706	291.87396	163.77859	447.41434	319.19196	197.91974	322.42371	308.73947	124.46049	80.85394	356.68286	88.53083	15.37954	288.91177	329.01443	50.14708	534.15631	288.14584	558.10162	604.99176	181.03224	439.92389	585.82489	198.43086	235.82944	607.85242	144.65938	76.30964	572.06219	93.30165	14.67528	612.49445	339.19775	47.72719
